<svg width="107" height="89" viewBox="0 0 107 89" fill="none" xmlns="http://www.w3.org/2000/svg">
<path fill-rule="evenodd" clip-rule="evenodd" d="M5.06535 21.059V3.51401H37.6153V70.549H50.4413V88.215H3.97635V70.549H16.5603V21.059H5.06535Z" fill="#25304A"/>
<path fill-rule="evenodd" clip-rule="evenodd" d="M5.72653 80.2153V72.5493H18.3105V13.0593H6.81553V5.51431H29.3655V72.5493H42.1915V80.2153H5.72653Z" fill="white"/>
<path fill-rule="evenodd" clip-rule="evenodd" d="M24.3212 8.49161H9.80124V9.45961H23.2322V75.7686H8.10724V76.7366H39.6882V75.7686H24.3212V8.49161ZM1.81524 18.5346V0.263611H34.3652V66.5726H47.7962V84.9656H0.000244141V66.5726H13.3102V18.5346H1.81524Z" fill="#EF7B7B"/>
<path fill-rule="evenodd" clip-rule="evenodd" d="M61.0653 21.059V3.51401H93.6153V70.549H106.441V88.215H59.9763V70.549H72.5603V21.059H61.0653Z" fill="#25304A"/>
<path fill-rule="evenodd" clip-rule="evenodd" d="M61.7265 80.2153V72.5493H74.3105V13.0593H62.8155V5.51431H85.3655V72.5493H98.1915V80.2153H61.7265Z" fill="white"/>
<path fill-rule="evenodd" clip-rule="evenodd" d="M80.3212 8.49161H65.8012V9.45961H79.2322V75.7686H64.1072V76.7366H95.6882V75.7686H80.3212V8.49161ZM57.8152 18.5346V0.263611H90.3652V66.5726H103.796V84.9656H56.0002V66.5726H69.3102V18.5346H57.8152Z" fill="#EF7B7B"/>
</svg>
